<svg width="40" height="41" viewBox="0 0 40 41" fill="none" xmlns="http://www.w3.org/2000/svg">
<g id="Clipboard check">
<path id="Icon" d="M15.7078 23.554C15.3172 23.1634 14.6841 23.1634 14.2935 23.554C13.903 23.9445 13.903 24.5777 14.2935 24.9682L15.7078 23.554ZM18.334 27.5944L17.6269 28.3015C18.0174 28.692 18.6506 28.692 19.0411 28.3015L18.334 27.5944ZM25.7078 21.6348C26.0983 21.2443 26.0983 20.6112 25.7078 20.2206C25.3172 19.8301 24.6841 19.8301 24.2935 20.2206L25.7078 21.6348ZM30.6673 12.5944V32.5944H32.6673V12.5944H30.6673ZM28.334 34.9277H11.6673V36.9277H28.334V34.9277ZM9.33398 32.5944V12.5944H7.33398V32.5944H9.33398ZM11.6673 10.2611H15.0007V8.26107H11.6673V10.2611ZM25.0007 10.2611H28.334V8.26107H25.0007V10.2611ZM11.6673 34.9277C10.3787 34.9277 9.33398 33.8831 9.33398 32.5944H7.33398C7.33398 34.9876 9.27408 36.9277 11.6673 36.9277V34.9277ZM30.6673 32.5944C30.6673 33.8831 29.6226 34.9277 28.334 34.9277V36.9277C30.7272 36.9277 32.6673 34.9876 32.6673 32.5944H30.6673ZM32.6673 12.5944C32.6673 10.2012 30.7272 8.26107 28.334 8.26107V10.2611C29.6226 10.2611 30.6673 11.3057 30.6673 12.5944H32.6673ZM9.33398 12.5944C9.33398 11.3057 10.3787 10.2611 11.6673 10.2611V8.26107C9.27408 8.26107 7.33398 10.2012 7.33398 12.5944H9.33398ZM14.2935 24.9682L17.6269 28.3015L19.0411 26.8873L15.7078 23.554L14.2935 24.9682ZM19.0411 28.3015L25.7078 21.6348L24.2935 20.2206L17.6269 26.8873L19.0411 28.3015ZM18.334 6.92773H21.6673V4.92773H18.334V6.92773ZM21.6673 11.5944H18.334V13.5944H21.6673V11.5944ZM18.334 11.5944C17.0453 11.5944 16.0007 10.5497 16.0007 9.26107H14.0007C14.0007 11.6543 15.9408 13.5944 18.334 13.5944V11.5944ZM24.0007 9.26107C24.0007 10.5497 22.956 11.5944 21.6673 11.5944V13.5944C24.0606 13.5944 26.0007 11.6543 26.0007 9.26107H24.0007ZM21.6673 6.92773C22.956 6.92773 24.0007 7.9724 24.0007 9.26107H26.0007C26.0007 6.86783 24.0606 4.92773 21.6673 4.92773V6.92773ZM18.334 4.92773C15.9408 4.92773 14.0007 6.86783 14.0007 9.26107H16.0007C16.0007 7.9724 17.0453 6.92773 18.334 6.92773V4.92773Z" fill="white"/>
</g>
</svg>
