<svg width="40" height="41" viewBox="0 0 40 41" fill="none" xmlns="http://www.w3.org/2000/svg">
<g id="Gift">
<path id="Icon" d="M20 14.2611V35.9277M20 14.2611C20 14.2611 20 11.7731 20 10.9277C20 9.08679 21.4924 7.5944 23.3333 7.5944C25.1743 7.5944 26.6667 9.08679 26.6667 10.9277C26.6667 12.7687 25.1743 14.2611 23.3333 14.2611C22.3378 14.2611 20 14.2611 20 14.2611ZM20 14.2611C20 14.2611 20 11.0326 20 10.0944C20 7.79321 18.1345 5.92773 15.8333 5.92773C13.5321 5.92773 11.6667 7.79321 11.6667 10.0944C11.6667 12.3956 13.5321 14.2611 15.8333 14.2611C17.1963 14.2611 20 14.2611 20 14.2611ZM8.33333 20.9277H31.6667M8.33333 20.9277C6.49238 20.9277 5 19.4353 5 17.5944C5 15.7535 6.49238 14.2611 8.33333 14.2611H31.6667C33.5076 14.2611 35 15.7535 35 17.5944C35 19.4353 33.5076 20.9277 31.6667 20.9277M8.33333 20.9277L8.33333 32.5944C8.33333 34.4353 9.82572 35.9277 11.6667 35.9277H28.3333C30.1743 35.9277 31.6667 34.4353 31.6667 32.5944V20.9277" stroke="white" stroke-width="2" stroke-linecap="round" stroke-linejoin="round"/>
</g>
</svg>
