<svg width="40" height="41" viewBox="0 0 40 41" fill="none" xmlns="http://www.w3.org/2000/svg">
<g id="Truck">
<path id="Icon" d="M21.6667 27.5951V10.9284C21.6667 10.0079 20.9205 9.26172 20 9.26172H6.66667C5.74619 9.26172 5 10.0079 5 10.9284V27.5951C5 28.5155 5.74619 29.2617 6.66667 29.2617H8.33333M21.6667 27.5951C21.6667 28.5155 20.9205 29.2617 20 29.2617H15M21.6667 27.5951L21.6667 14.2617C21.6667 13.3412 22.4129 12.5951 23.3333 12.5951H27.643C28.085 12.5951 28.5089 12.7706 28.8215 13.0832L34.5118 18.7736C34.8244 19.0861 35 19.51 35 19.9521V27.5951C35 28.5155 34.2538 29.2617 33.3333 29.2617H31.6667M21.6667 27.5951C21.6667 28.5155 22.4129 29.2617 23.3333 29.2617H25M8.33333 29.2617C8.33333 31.1027 9.82572 32.5951 11.6667 32.5951C13.5076 32.5951 15 31.1027 15 29.2617M8.33333 29.2617C8.33333 27.4208 9.82572 25.9284 11.6667 25.9284C13.5076 25.9284 15 27.4208 15 29.2617M25 29.2617C25 31.1027 26.4924 32.5951 28.3333 32.5951C30.1743 32.5951 31.6667 31.1027 31.6667 29.2617M25 29.2617C25 27.4208 26.4924 25.9284 28.3333 25.9284C30.1743 25.9284 31.6667 27.4208 31.6667 29.2617" stroke="white" stroke-width="2"/>
</g>
</svg>
